P2
# Exemplo
4 3
255
0 64 128 255
10 20 30 40
50 60 70 80